<?xml version="1.0" encoding="UTF-8" standalone="no"?>
<!-- Created with Inkscape (http://www.inkscape.org/) -->

<svg
   xmlns:dc="http://purl.org/dc/elements/1.1/"
   xmlns:cc="http://creativecommons.org/ns#"
   xmlns:rdf="http://www.w3.org/1999/02/22-rdf-syntax-ns#"
   xmlns:svg="http://www.w3.org/2000/svg"
   xmlns="http://www.w3.org/2000/svg"
   xmlns:sodipodi="http://sodipodi.sourceforge.net/DTD/sodipodi-0.dtd"
   xmlns:inkscape="http://www.inkscape.org/namespaces/inkscape"
   width="500"
   height="500"
   id="svg3001"
   version="1.1"
   inkscape:version="0.48.5 r10040"
   sodipodi:docname="netdava.svg"
   inkscape:export-filename="/home/ieugen/contracte/ieugen.ro/netdava.png"
   inkscape:export-xdpi="90"
   inkscape:export-ydpi="90">
  <defs
     id="defs3003" />
  <sodipodi:namedview
     id="base"
     pagecolor="#ffffff"
     bordercolor="#666666"
     borderopacity="1.0"
     inkscape:pageopacity="0.0"
     inkscape:pageshadow="2"
     inkscape:zoom="0.35"
     inkscape:cx="272.94613"
     inkscape:cy="-107.89021"
     inkscape:document-units="px"
     inkscape:current-layer="layer1"
     showgrid="false"
     fit-margin-top="0"
     fit-margin-left="0"
     fit-margin-right="0"
     fit-margin-bottom="0"
     inkscape:window-width="1366"
     inkscape:window-height="702"
     inkscape:window-x="0"
     inkscape:window-y="27"
     inkscape:window-maximized="1" />
  <metadata
     id="metadata3006">
    <rdf:RDF>
      <cc:Work
         rdf:about="">
        <dc:format>image/svg+xml</dc:format>
        <dc:type
           rdf:resource="http://purl.org/dc/dcmitype/StillImage" />
        <dc:title></dc:title>
      </cc:Work>
    </rdf:RDF>
  </metadata>
  <g
     inkscape:label="Layer 1"
     inkscape:groupmode="layer"
     id="layer1"
     transform="translate(-102.05387,29.813741)">
    <path
       style="fill:#88242d"
       d="m 343.82509,138.06385 c -1.98723,-19.62092 9.36204,-18.80172 11.90231,-18.77275 6.87058,0.0784 13.85379,6.33719 12.40453,19.97894 -0.98568,9.27809 -7.21847,10.06209 -11.33323,10.575 -4.11476,0.51291 -11.72341,0.56268 -12.97361,-11.78119 z"
       id="path4372"
       inkscape:connector-curvature="0"
       sodipodi:nodetypes="sssss" />
    <path
       style="fill:#292b53"
       d="M 253.27096,387.86208 C 237.26495,373.80058 226.46709,361.8572 215.72095,336.13916 204.97481,310.42112 194.9309,245.96421 201.0634,206.36645 c 6.13249,-39.59777 24.8636,-78.88136 39.75951,-102.99574 14.89592,-24.114389 24.49844,-31.862419 40.15346,-44.126979 12.04631,-9.437407 24.71984,-16.734848 40.36331,-21.872541 9.63061,-3.162927 22.51609,-5.27606 33.99787,-5.641917 10.38028,-0.330759 21.3662,1.071952 30.99868,3.133531 8.4031,1.87909 12.98237,3.103916 19.47856,5.176856 4.0989,1.307962 8.26789,2.60561 12.22688,4.348714 11.8237,5.205859 23.64514,10.767307 34.23693,18.164257 8.25667,5.76619 15.94224,12.55835 22.48384,20.18094 6.82499,7.95281 12.47765,16.8988 16.53554,26.895179 11.34164,35.89782 7.75251,76.51019 -7.57221,109.86801 -14.50624,31.57621 -42.24251,57.02016 -74.23388,73.18965 -8.69712,4.39581 -20.11301,7.827 -31.17812,8.75732 -8.48687,0.71355 -16.76738,-0.0441 -23.45653,-2.96614 -7.81801,-3.41515 -11.53851,-12.51556 -14.72152,-20.22165 -3.51515,-8.51019 -3.13493,-18.05655 -4.24086,-27.29528 -1.10593,-9.23873 -3.15476,-18.73655 -2.37042,-28.10555 0.77487,-9.25596 -0.61924,-21.57352 6.92587,-26.99058 6.98861,-5.01751 18.58919,-2.87064 25.73864,1.9149 2.80577,1.87806 3.315,3.98496 4.54504,9.05194 1.23005,5.06698 0.89334,15.58565 0.23207,21.15465 -2.08164,17.53094 -3.19626,31.41123 6.63743,41.2931 2.71023,2.7235 7.58604,2.54269 11.37156,1.88491 15.20271,-2.64168 18.70756,-3.38349 40.43783,-22.53197 24.14615,-21.27733 37.09396,-51.01087 41.66516,-81.80196 4.70129,-31.66735 -1.90236,-63.7956 -35.3906,-85.323379 -33.48824,-21.52778 -107.4507,-34.450617 -146.40397,5.11933 -39.47434,40.099259 -53.58202,98.408089 -58.74742,152.849879 -4.05958,52.34517 11.19548,113.71801 59.13321,142.08984 18.9678,9.70032 40.38529,17.36364 60.62613,15.28456 20.24084,-2.07909 35.94548,-15.04346 53.58776,-25.99709 17.64228,-10.95363 36.3087,-55.4208 51.3949,-39.85259 23.2191,23.96096 -49.34331,69.17468 -63.79358,77.13407 -14.45027,7.95939 -23.6312,11.80615 -36.48981,13.11647 -18.36094,1.87102 -40.73905,-3.89273 -54.81102,-7.83425 -24.16842,-6.7695 -33.53476,-13.80217 -46.91268,-25.55486 z"
       id="path4370"
       inkscape:connector-curvature="0"
       sodipodi:nodetypes="azzzasacsaascasssazaaazsaasszsccccacasa" />
  </g>
</svg>
